<svg xmlns="http://www.w3.org/2000/svg" width="1240" height="775" viewBox="0 0 1240 775">
  <defs>
    <style>
      .cls-1 {
        fill: #fff;
        fill-rule: evenodd;
      }
    </style>
  </defs>
  <path id="Color_Fill_4" data-name="Color Fill 4" class="cls-1" d="M592,31q-0.5,5-1,10l-71,9q-3-19.5-6-39L584,1V4q1,3.5,2,7l-42,6v4l36-3q1,2.5,2,5l-2,1-10,4v2C576.731,32.742,581.27,31.452,592,31ZM630,1c40.276-1.1,53.332,15.621,64,42-24.936-.013-23.353-5.592-36-10-21.593-7.525-39.6,5.987-62,6Zm82,5,37,13q2,11,4,22l3-1,14-14c13.612,0.864,30.386,7.344,38,15L794,75l-20-6-2-2,4-14L762,64c-20.92-1.517-28.26-9.709-34-27h-2c-2.141,5.77-2.265,11.113-10,12l-16-8Q706,23.5,712,6ZM40,13L70,37l79,49c73.409,37.809,181.048,54.947,234,114,24.368,27.176,35.761,66.856,55,99l46,72-4,6c-79.89.376-71.318-118.495-109-163-26.149-30.883-67.908-30.845-111-46-71.244-25.056-137.7-36.649-185-84C57.031,66.01,39.774,49.4,40,13Zm1158,0c15.63,23.558-31.36,69.372-41,79-68.8,68.713-236.211,60.392-290,124-32.255,38.143-37.609,173.682-111,160l-2-3,47-73c22.224-40.87,39.1-90.811,75-118,45.491-34.449,107.765-46.743,163-72C1097.88,83.076,1152.26,52.913,1198,13ZM494,16l7,2q-0.5,3-1,6c-7.5,3.413-14.518,5.286-18,13q4,13,8,26l-24,9L454,48l-24,6-2-3q0.5-2,1-4Zm58,17v3l12-1V34ZM416,65l8,1c3.173,4.652,4.434,7.725,3,15l-3,2c-10.615.707-15.679-1.022-17-10Zm402,0,8,1,3,3q0.5,3.5,1,7c-3.564,6.076-7.183,7.981-16,6q-1-5-2-10ZM447,80c7.367,1.042,8.74,3.1,11,9q-1,4-2,8l12-7c9.45,3.332,10.1,7.012,13,17l9-5,8,4q0.5,2.5,1,5c-8.252,7.874-15.276,21.065-29,23l-7-6V113l-3,1-10,7c-6.49-2.031-9.465-3.89-12-10C440.074,100.981,442.15,87.353,447,80Zm331,6c11.42,1.3,28.1,12.661,33,21l-2,3c-8.083,6.307-10.684-.931-19,3-9.731,4.6-10.221,17.107-22,22v-3c-2.949-8.529-4.188-31.143,1-38Zm-52,23c9.5,3,10.538,14.5,14,23l19-2q1,3,2,6l-2,2-32,7-9-29,3-5Zm-214,1c8.6,0.391,15.184,2.874,20,7q3,18,6,36l-14-3c-1.4-3.733-1.964-6.691-5-9H486Zm174,45q-3-18-6-36l16-2q2,13,4,26l22-4q-1,5-2,10ZM546,119l15,2q-0.5,13-1,26l16,1,2,5q-1,2-2,4l-32-2Q545,137,546,119Zm82,4q-0.5,18-1,36l-3,2H612V145c-12.724-1.044-15.058,1.265-14,14l-14-1q-0.5-1.5-1-3,1-15,2-30l3-2,8,1,6,13h8l2-2c0.086-7.387.909-8.321,4-12h12Zm18,0c23.29-1.025,33.824,15.4,36,34l-30-6c-7.436,2.232-6.742,7.52-20,8Zm592,0c5.55,9.072-3.33,18.926-7,25-9.36,15.48-24.78,31.619-43,38-31.86,11.157-139.19,2.189-148-17,26.22,0.232,29.48-13.972,48-18h60C1183.74,145.174,1212.52,138.061,1238,123ZM1,125l61,22,92,5,32,17c9.308,1.209,10.9-2.015,13,4C148.975,205.962-8.818,195.825,1,125Zm225,60a309.464,309.464,0,0,1,52,4l-1,4c-36.79,26.6-94.673,91-166,57-14.408-6.868-31.726-13.389-37-29l2-2C142.474,220.043,181.423,205.192,226,185Zm752,0c61.53-1.55,87.76,23.967,140,34l50,2c-14.07,30.78-85.4,50.043-128,29q-20.505-16-41-32c-11.347-9.07-31.117-14.9-37-29ZM312,207c18.662-.754,24.181,3.694,33,12v4c-34.814,33.037-44.277,85.658-119,71-12.358-2.424-23.779-2.313-28-13v-1C246.046,265.514,269.7,229.411,312,207Zm600,0c47.16-.516,60.063,35.4,88,54q22,10.5,44,21c-0.33,1-.67,2-1,3-78.087,39.062-94.307-3.852-128-43l-20-21,2-3ZM364,241l6,3c8.979,26.767-.487,51.937-5,77l-5,2c-11.638-4.889-42.558-.006-56-10v-2C331.372,295.2,340.944,261.34,364,241Zm510,0c6.326,2.737,57.864,66.347,62,74l-1,1-1,1c-19,2.48-46.118,5.252-58,5C867.49,299.371,855.682,259.537,874,241ZM794,471q1,15,2,30l-5-2-3-10h-2c0,7.562-.467,9.7-6,12l-4-6-7,6c-8.241-9.112-4.288-23.572-12-36l-57-57h-2c-13.873,24.808-2.233,68.236,2,93,9.308,54.454-12.1,84.43-32,110,7.492,22.394,7,117.634-7,131l-27,5c0.2,25.83-12.78,32.778-31,20-5.142-21.355,1.987-41.668-1-58-8.665-47.383-31.783-104.75-40-150-11.342-62.455,13.871-111.864,16-162-11.162,3.44-75.266,47.579-79,54q-1,17-2,34l-5,2q-0.5-5-1-10-2.5,7-5,14h-2q-0.5-5-1-10h-1c-3.418,5.833-3.647,10.749-10,14v-8l-8,4q2-11,4-22l-7,2,4-18,70-71c16.266-19.372,29.317-54.943,51-68,9.766-5.881,20.7-.628,34-5,15.769-5.185,17.353-33.889,48-23,18.712,6.649,10.317,16.379,21,30,8.069,10.288,24.827,11.465,32,23l8,28c7.272,19.231,29.545,63.35,42,77,10.633,11.653,23.936,10.361,31,27h-8Z"/>
</svg>
