<svg xmlns="http://www.w3.org/2000/svg" width="1240" height="775" viewBox="0 0 1240 775">
  <defs>
    <style>
      .cls-1 {
        fill-rule: evenodd;
      }
    </style>
  </defs>
  <path id="Color_Fill_5" data-name="Color Fill 5" class="cls-1" d="M629,0l37,3,29,40-1,1c-16.838-2.739-49.186-17.361-64-12-10.335,3.74-15.2,7.04-34,7ZM580,1h4q0.5,4.5,1,9l-42,7v5l37-5q0.5,4,1,8l-1,1-35,6q0.5,2.5,1,5l1,1,45-6q0.5,3.5,1,7l-1,1L519,50q-3-18.5-6-37l4-1ZM712,5l37,14,3,24h2l16-18,39,14L796,76l-24-8q4-11,8-22L760,64c-8.6-2.762-22.965-5.349-27-13q-2.5-11-5-22-4,10.5-8,21l-21-7V42Zm-67,9-6,7,1,2,1,1,11-1-2-4C647.961,15.335,648.8,16.019,645,14ZM497,15l5,8L480,34l12,28L466,73,453,46,430,56l-3-8ZM416,65l11,3c4.624,16.841-17.03,21.464-17,4Zm401,0,11,3c2.95,9.029,1.089,13.483-8,16-6.605-2.235-8.392-3.606-9-12ZM446,78l12,7-4,17,3-1,10-11,13,7-3,17h2c4.036-5.368,7.527-11.623,13-10l9,6-25,25-15-8,4-17-3,1-9,11-15-7Q442,96.5,446,78Zm332,8,35,21v1l-11,7-10-4-11,8q-1,5-2,10l-10,5-1-1q-1.5-19.5-3-39Zm0,15q0.5,3.5,1,7h4q1-2,2-4l-1-1Zm-266,8,19,6q3,19,6,38h-1c-11.632-3.563-13.3-13-24-15-10.229-1.913-12.152,6.14-25,1l1-2Zm215,0h4l8,24,20-5q1,4,2,8l-33,11-11-34Zm-35,8h3q2.5,13,5,26c8.16-1.107,16.989-4.259,21,0q0.5,3,1,6l-34,6q-0.5-2-1-4-2.5-16-5-32Zm-145,1,14,2q-1,13-2,26l20,4q-1,4-2,8l-34-5-1-1Q544.5,135,547,118Zm105,4h12l19,34c-13.4,1.088-14.614-6.029-24-6-13.022.04-12.193,8.973-27,10l13-37Zm-68,1h14q1,7,2,14h12q0.5-1,1-2V124h14q-0.5,18-1,36l-14-1q-0.5-7-1-14H598q-1,7-2,14l-13-1-1-1Q583,140,584,123Zm-68,1q-0.5,3.5-1,7h5C519.107,125.068,520.115,126.519,516,124Zm138,11q-1,3-2,6l7,1v-1q-1-3-2-6h-3Z"/>
  <path id="Color_Fill_2" data-name="Color Fill 2" class="cls-1" d="M649,285c41.947,1.106,25.179,13.859,42,34,8.817,10.558,23.485,9.864,31,23,17.99,31.446,25.011,79.4,50,104,6.643,6.538,22.193,15.5,30,22v3l-9-2q1,15.5,2,31l-1,1h-1q-2.5-7-5-14h-2q-0.5,1-1,2l-3,15-3,1-1-1V492h-2l-8,11v-8l-7,4c11.766-27.064-45.738-75.975-61-92-25.59,17.63,5.086,95.79,1,130-4.37,36.583-15.708,52.624-34,74,12.548,27.978,5.6,102.836-5,130l-29,7c0.061,12.281-3.434,19.478-8,27l-21-7q-3-18.5-6-37,2.5-10.5,5-21c-10.164-53.894-34.5-111.566-42-167-7.8-57.712,21.276-101.621,17-148-10.86,4.2-79.4,52.617-81,59-2.388,9.558.673,25.153-2,34h-2l-1-4v-7h-2c-1.245,7.1-1.05,12.466-6,16l-1-2q0.5-6,1-12h-3l-5,15c-4.338-3.835-1.708-8.325-2-13h-2l-8,11-1-2,6-24-9,6c10.168-39.123,51.638-62.579,75-90l49-66c11.168-7.683,22.471-2.538,38-8C632.1,304.448,636.652,290.465,649,285ZM631,658c-0.289,31.62-3.072,57.128,3,84h1C639.269,719.11,643.23,670.734,631,658Z"/>
  <path id="Color_Fill_1" data-name="Color Fill 1" class="cls-1" d="M40,12c47.064,31.731,89.749,67.6,146,92,60.928,26.427,131.478,42.909,181,81,34.9,26.847,50.224,79.017,73,118q22.5,35.5,45,71l-2,2c-71.954,10-81.4-123.934-114-165-20.376-25.667-62.14-30.7-98-41C186.328,145.684,105.1,128.786,59,66,50.3,54.149,35.935,32.286,40,12Zm1158,0c15.09,23.066-33.2,74.08-44,83-36.93,30.5-85.06,46.5-138,62-48.418,14.179-119.589,20.176-147,56-25.138,32.854-50.782,185.976-113,162l-2-2,41-62c31.48-52.422,47.85-109.162,100-141C991.477,111.1,1128.06,96.707,1198,12ZM-3,121c28.112,12.1,53.156,24.77,91,30l64,1c18.093,4.047,23.943,17.072,49,18q-0.5,1.5-1,3c-19.816,11.954-44.4,11.453-74,15C53.875,196.642,11.024,174.3-3,121Zm1244,0c10.98,69.76-153.28,90.241-202,51v-2c24.63-.564,30.32-14.072,48-18h52C1178.89,147.035,1216.06,140.914,1241,121ZM235,184c16.3-.531,33.9.727,44,7-37.762,31.609-106.382,95.159-176,55-12.468-7.192-25.994-14.49-33-27C137.765,228.756,186.643,200.677,235,184Zm753,0c67.18-.543,101.35,48.73,181,35-0.33,1.333-.67,2.667-1,4-94.15,74.77-134.76,10.874-207-31v-2ZM315,207c15.925-.272,21.752,5.1,30,12l-1,4c-36.41,30.422-39.856,83.653-112,71-15.763-2.765-28.554-3.43-38-12C244.961,263.249,267.41,228.633,315,207Zm599,0c59.445,0.263,75.5,62.146,131,74-7.21,10.188-21.94,10.445-37,13-55.229,9.372-64.457-13.52-87-44l-26-29,2-3ZM366,240c20.178,17.152,3.65,59.477-2,82-9.81-.659-7.895-4.928-13-7-5.414-2.2-29.474,7.8-48-2l23-20C340.54,274.661,346.3,253.355,366,240Zm506,0c30.109,11.76,36.209,55.566,65,72-12.216,11.013-32.461,7.406-48,3-4.141,4.771-4.883,6.673-14,7C868.193,293.165,859.137,266.618,872,240Z"/>
</svg>
